# xmcd
#
# Track frame offsets:
#	150
#	18180
#	56810
#
# Disc length: 1179 seconds
#
# Revision: 3
# Processed by: cddbd v1.5.2PL0 Copyright (c) Steve Scherf et al.
# Submitted via: EasyCDDAExtractor 15.3.0.1
#
DISCID=1d049903
DTITLE=Cher - All Or Nothing 1
DYEAR=1999
DGENRE=Pop
TTITLE0=All Or Nothing
TTITLE1=All Or Nothing (Almighty Definitive Mix)
TTITLE2=All Or Nothing (K-Klass Klub Mix)
EXTD=YEAR: 1999
EXTT0=
EXTT1=
EXTT2=
PLAYORDER=
